<?xml version="1.0" encoding="UTF-8" standalone="no"?>
<!-- Created with Inkscape (http://www.inkscape.org/) -->

<svg
   width="210mm"
   height="297mm"
   viewBox="0 0 210 297"
   version="1.1"
   id="svg5"
   xml:space="preserve"
   inkscape:version="1.2.2 (732a01da63, 2022-12-09)"
   sodipodi:docname="FullTest.svg"
   xmlns:inkscape="http://www.inkscape.org/namespaces/inkscape"
   xmlns:sodipodi="http://sodipodi.sourceforge.net/DTD/sodipodi-0.dtd"
   xmlns="http://www.w3.org/2000/svg"
   xmlns:svg="http://www.w3.org/2000/svg"><sodipodi:namedview
     id="namedview7"
     pagecolor="#ffffff"
     bordercolor="#000000"
     borderopacity="0.25"
     inkscape:showpageshadow="2"
     inkscape:pageopacity="0.0"
     inkscape:pagecheckerboard="0"
     inkscape:deskcolor="#d1d1d1"
     inkscape:document-units="mm"
     showgrid="false"
     inkscape:zoom="0.78127806"
     inkscape:cx="551.66019"
     inkscape:cy="477.42285"
     inkscape:window-width="1920"
     inkscape:window-height="1057"
     inkscape:window-x="-8"
     inkscape:window-y="-8"
     inkscape:window-maximized="1"
     inkscape:current-layer="layer1" /><defs
     id="defs2"><marker
       id="DistanceX"
       orient="auto"
       refX="0.0"
       refY="0.0"
       style="overflow:visible"><path
         d="M 3,-3 L -3,3 M 0,-5 L  0,5"
         style="stroke:#000000; stroke-width:0.5"
         id="path11" /></marker><pattern
       id="Hatch"
       patternUnits="userSpaceOnUse"
       width="8"
       height="8"
       x="0"
       y="0"><path
         d="M8 4 l-4,4"
         stroke="#000000"
         stroke-width="0.25"
         linecap="square"
         id="path14" /><path
         d="M6 2 l-4,4"
         stroke="#000000"
         stroke-width="0.25"
         linecap="square"
         id="path16" /><path
         d="M4 0 l-4,4"
         stroke="#000000"
         stroke-width="0.25"
         linecap="square"
         id="path18" /></pattern><symbol
       id="*MODEL_SPACE" /><symbol
       id="*PAPER_SPACE" /></defs><g
     inkscape:label="Calque 1"
     inkscape:groupmode="layer"
     id="layer1"><g
       inkscape:label="0"
       id="g241"
       transform="matrix(0.26458333,0,0,0.26458333,16.623219,-138.96983)"><path
         style="fill:none;stroke:#000000"
         d="M 264.567,1046.93 H 321.26"
         id="path25" /><path
         d="m 396.85039,1080.9449 v -18.8977 h -56.69291 v 18.8977 z"
         style="fill:none;stroke:#000000"
         id="path27" /><path
         d="m 396.85039,990.23622 v -18.89764 h -56.69291 v 18.89764 z"
         style="fill:none;stroke:#000000"
         id="path29" /><path
         style="fill:none;stroke:#000000"
         d="M 264.567,990.236 H 321.26"
         id="path31" /><path
         d="m 340.15748,967.55905 h 56.69291 v -18.89763 h -56.69291 z"
         style="fill:none;stroke:#000000"
         id="path33" /><path
         style="fill:none;stroke:#000000"
         d="M 264.567,1009.13 H 321.26"
         id="path35" /><path
         style="fill:none;stroke:#000000"
         d="m 264.567,1103.62 v -18.9"
         id="path37" /><path
         style="fill:none;stroke:#000000"
         d="M 264.567,1084.72 H 321.26"
         id="path39" /><path
         d="M 321.25984,952.44095 H 264.56693 V 1103.622 h 56.69291 z"
         style="fill:none;stroke:#000000"
         id="path41" /><path
         d="m 396.85039,994.01575 h -56.69291 v 18.89765 h 56.69291 z"
         style="fill:none;stroke:#000000"
         id="path43" /><path
         style="fill:none;stroke:#000000"
         d="m 264.567,1103.62 v -3.78"
         id="path45" /><path
         d="m 340.15748,1103.622 h 56.69291 v -18.8976 h -56.69291 z"
         style="fill:none;stroke:#000000"
         id="path47" /><path
         style="fill:none;stroke:#000000"
         d="M 264.567,1028.03 H 321.26"
         id="path49" /><path
         d="m 340.15748,1058.2677 h 56.69291 v -18.8976 h -56.69291 z"
         style="fill:none;stroke:#000000"
         id="path51" /><path
         d="m 340.15748,1016.6929 v 18.8977 h 56.69291 v -18.8977 z"
         style="fill:none;stroke:#000000"
         id="path53" /><path
         style="fill:none;stroke:#000000"
         d="M 264.567,1065.83 H 321.26"
         id="path55" /><path
         style="fill:none;stroke:#000000"
         d="M 264.567,971.339 H 321.26"
         id="path57" /><path
         d="m 124.29638,898.58267 -5.45527,-9.44881 h -10.91056 l -5.45528,9.44881 5.45528,9.44882 h 10.91056 z"
         style="fill:none;stroke:#000000"
         id="path59" /><path
         d="m 124.29638,940.15748 -5.45527,-9.44882 h -10.91056 l -5.45528,9.44882 5.45528,9.44882 h 10.91056 z"
         style="fill:none;stroke:#000000"
         id="path61" /><path
         d="m 99.943467,939.2126 5.455283,-9.44882 -5.455283,-9.44882 H 89.032911 l -5.455278,9.44882 5.455278,9.44882 z"
         style="fill:none;stroke:#000000"
         id="path63" /><path
         d="m 145.72582,868.34645 -5.45527,9.44882 5.45527,9.44882 h 10.91056 l 5.45528,-9.44882 -5.45528,-9.44882 z"
         style="fill:none;stroke:#000000"
         id="path65" /><path
         d="m 29.808194,929.76378 -5.455278,-9.44882 H 13.44236 l -5.455278,9.44882 5.455278,9.44882 h 10.910556 z"
         style="fill:none;stroke:#000000"
         id="path67" /><path
         d="m 162.09166,919.37008 -5.45528,-9.44882 h -10.91056 l -5.45527,9.44882 5.45527,9.44881 h 10.91056 z"
         style="fill:none;stroke:#000000"
         id="path69" /><path
         d="m 143.19402,888.18897 -5.45528,-9.44882 h -10.91055 l -5.45528,9.44882 5.45528,9.44882 h 10.91055 z"
         style="fill:none;stroke:#000000"
         id="path71" /><path
         d="m 145.72582,889.13386 -5.45527,9.44881 5.45527,9.44882 h 10.91056 l 5.45528,-9.44882 -5.45528,-9.44881 z"
         style="fill:none;stroke:#000000"
         id="path73" /><path
         d="m 118.84111,887.24409 5.45527,-9.44882 -5.45527,-9.44882 h -10.91056 l -5.45528,9.44882 5.45528,9.44882 z"
         style="fill:none;stroke:#000000"
         id="path75" /><path
         d="m 143.19402,929.76378 -5.45528,-9.44882 h -10.91055 l -5.45528,9.44882 5.45528,9.44882 h 10.91055 z"
         style="fill:none;stroke:#000000"
         id="path77" /><path
         d="m 137.73874,899.52756 h -10.91055 l -5.45528,9.44882 5.45528,9.44882 h 10.91055 l 5.45528,-9.44882 z"
         style="fill:none;stroke:#000000"
         id="path79" /><path
         d="m 156.63638,949.6063 5.45528,-9.44882 -5.45528,-9.44882 h -10.91056 l -5.45527,9.44882 5.45527,9.44882 z"
         style="fill:none;stroke:#000000"
         id="path81" /><path
         d="m 143.19402,950.55118 -5.45528,-9.44882 h -10.91055 l -5.45528,9.44882 5.45528,9.44882 h 10.91055 z"
         style="fill:none;stroke:#000000"
         id="path83" /><path
         d="m 126.82819,961.88976 -5.45528,9.44882 5.45528,9.44882 h 10.91055 l 5.45528,-9.44882 -5.45528,-9.44882 z"
         style="fill:none;stroke:#000000"
         id="path85" /><path
         d="m 140.27055,960.94488 5.45527,9.44882 h 10.91056 l 5.45528,-9.44882 -5.45528,-9.44882 h -10.91056 z"
         style="fill:none;stroke:#000000"
         id="path87" /><path
         d="M 62.148192,899.52756 H 51.237636 l -5.455279,9.44882 5.455279,9.44882 h 10.910556 l 5.455278,-9.44882 z"
         style="fill:none;stroke:#000000"
         id="path89" /><path
         d="M 62.148192,961.88976 H 51.237636 l -5.455279,9.44882 5.455279,9.44882 h 10.910556 l 5.455278,-9.44882 z"
         style="fill:none;stroke:#000000"
         id="path91" /><path
         d="m 51.237636,920.31496 -5.455279,9.44882 5.455279,9.44882 h 10.910556 l 5.455278,-9.44882 -5.455278,-9.44882 z"
         style="fill:none;stroke:#000000"
         id="path93" /><path
         d="M 62.148192,878.74015 H 51.237636 l -5.455279,9.44882 5.455279,9.44882 h 10.910556 l 5.455278,-9.44882 z"
         style="fill:none;stroke:#000000"
         id="path95" /><path
         d="M 62.148192,941.10236 H 51.237636 L 45.782357,950.55118 51.237636,960 h 10.910556 l 5.455278,-9.44882 z"
         style="fill:none;stroke:#000000"
         id="path97" /><path
         d="m 124.29638,919.37008 -5.45527,-9.44882 h -10.91056 l -5.45528,9.44882 5.45528,9.44881 h 10.91056 z"
         style="fill:none;stroke:#000000"
         id="path99" /><path
         d="m 124.29638,960.94488 -5.45527,-9.44882 h -10.91056 l -5.45528,9.44882 5.45528,9.44882 h 10.91056 z"
         style="fill:none;stroke:#000000"
         id="path101" /><path
         d="m 32.339998,930.70866 -5.455278,9.44882 5.455278,9.44882 h 10.910556 l 5.455278,-9.44882 -5.455278,-9.44882 z"
         style="fill:none;stroke:#000000"
         id="path103" /><path
         d="m 13.44236,918.4252 h 10.910556 l 5.455278,-9.44882 -5.455278,-9.44882 H 13.44236 l -5.455278,9.44882 z"
         style="fill:none;stroke:#000000"
         id="path105" /><path
         d="m 99.943467,960 5.455283,-9.44882 -5.455283,-9.44882 H 89.032911 L 83.577633,950.55118 89.032911,960 Z"
         style="fill:none;stroke:#000000"
         id="path107" /><path
         d="m 7.987082,971.33858 5.455278,9.44882 h 10.910556 l 5.455278,-9.44882 -5.455278,-9.44882 H 13.44236 Z"
         style="fill:none;stroke:#000000"
         id="path109" /><path
         d="m 81.04583,970.3937 5.455278,-9.44882 -5.455278,-9.44882 H 70.135273 l -5.455278,9.44882 5.455278,9.44882 z"
         style="fill:none;stroke:#000000"
         id="path111" /><path
         d="m 81.04583,949.6063 5.455278,-9.44882 -5.455278,-9.44882 H 70.135273 l -5.455278,9.44882 5.455278,9.44882 z"
         style="fill:none;stroke:#000000"
         id="path113" /><path
         d="m 64.679995,877.79527 5.455278,9.44882 H 81.04583 l 5.455278,-9.44882 -5.455278,-9.44882 H 70.135273 Z"
         style="fill:none;stroke:#000000"
         id="path115" /><path
         d="m 99.943467,897.63779 5.455283,-9.44882 -5.455283,-9.44882 H 89.032911 l -5.455278,9.44882 5.455278,9.44882 z"
         style="fill:none;stroke:#000000"
         id="path117" /><path
         d="m 83.577633,971.33858 5.455278,9.44882 h 10.910556 l 5.455283,-9.44882 -5.455283,-9.44882 H 89.032911 Z"
         style="fill:none;stroke:#000000"
         id="path119" /><path
         d="m 24.352916,897.63779 5.455278,-9.44882 -5.455278,-9.44882 H 13.44236 l -5.455278,9.44882 5.455278,9.44882 z"
         style="fill:none;stroke:#000000"
         id="path121" /><path
         d="M 86.501108,919.37008 81.04583,909.92126 H 70.135273 l -5.455278,9.44882 5.455278,9.44881 H 81.04583 Z"
         style="fill:none;stroke:#000000"
         id="path123" /><path
         d="M 43.250554,868.34645 H 32.339998 l -5.455278,9.44882 5.455278,9.44882 h 10.910556 l 5.455278,-9.44882 z"
         style="fill:none;stroke:#000000"
         id="path125" /><path
         d="m 32.339998,889.13386 -5.455278,9.44881 5.455278,9.44882 h 10.910556 l 5.455278,-9.44882 -5.455278,-9.44881 z"
         style="fill:none;stroke:#000000"
         id="path127" /><path
         d="m 29.808194,950.55118 -5.455278,-9.44882 H 13.44236 L 7.987082,950.55118 13.44236,960 h 10.910556 z"
         style="fill:none;stroke:#000000"
         id="path129" /><path
         d="M 43.250554,909.92126 H 32.339998 l -5.455278,9.44882 5.455278,9.44881 h 10.910556 l 5.455278,-9.44881 z"
         style="fill:none;stroke:#000000"
         id="path131" /><path
         d="m 89.032911,899.52756 -5.455278,9.44882 5.455278,9.44882 h 10.910556 l 5.455283,-9.44882 -5.455283,-9.44882 z"
         style="fill:none;stroke:#000000"
         id="path133" /><path
         d="m 32.339998,951.49606 -5.455278,9.44882 5.455278,9.44882 h 10.910556 l 5.455278,-9.44882 -5.455278,-9.44882 z"
         style="fill:none;stroke:#000000"
         id="path135" /><path
         d="m 70.135273,889.13386 -5.455278,9.44881 5.455278,9.44882 H 81.04583 l 5.455278,-9.44882 -5.455278,-9.44881 z"
         style="fill:none;stroke:#000000"
         id="path137" /><path
         d="m 73.700788,1035.5906 a 9.448819,9.448819 0 0 0 -18.897638,0 9.448819,9.448819 0 0 0 18.897638,0 z"
         style="fill:none;stroke:#000000"
         id="path139" /><path
         d="m 28.346457,1103.622 a 9.448819,9.448819 0 0 0 -18.897638,0 9.448819,9.448819 0 0 0 18.897638,0 z"
         style="fill:none;stroke:#000000"
         id="path141" /><path
         d="m 187.08661,1058.2677 a 9.448819,9.448819 0 0 0 -18.89763,0 9.448819,9.448819 0 0 0 18.89763,0 z"
         style="fill:none;stroke:#000000"
         id="path143" /><path
         d="m 51.023622,1080.9449 a 9.448819,9.448819 0 0 0 -18.897637,0 9.448819,9.448819 0 0 0 18.897637,0 z"
         style="fill:none;stroke:#000000"
         id="path145" /><path
         d="m 73.700788,1012.9134 a 9.448819,9.448819 0 0 0 -18.897638,0 9.448819,9.448819 0 0 0 18.897638,0 z"
         style="fill:none;stroke:#000000"
         id="path147" /><path
         d="m 28.346457,1058.2677 a 9.448819,9.448819 0 0 0 -18.897638,0 9.448819,9.448819 0 0 0 18.897638,0 z"
         style="fill:none;stroke:#000000"
         id="path149" /><path
         d="m 119.05512,1058.2677 a 9.44882,9.44882 0 0 0 -18.89764,0 9.44882,9.44882 0 0 0 18.89764,0 z"
         style="fill:none;stroke:#000000"
         id="path151" /><path
         d="m 51.023622,1103.622 a 9.448819,9.448819 0 0 0 -18.897637,0 9.448819,9.448819 0 0 0 18.897637,0 z"
         style="fill:none;stroke:#000000"
         id="path153" /><path
         d="m 96.377953,1012.9134 a 9.448819,9.448819 0 0 0 -18.897638,0 9.448819,9.448819 0 0 0 18.897638,0 z"
         style="fill:none;stroke:#000000"
         id="path155" /><path
         d="m 119.05512,1080.9449 a 9.44882,9.44882 0 0 0 -18.89764,0 9.44882,9.44882 0 0 0 18.89764,0 z"
         style="fill:none;stroke:#000000"
         id="path157" /><path
         d="m 164.40945,1035.5906 a 9.44882,9.44882 0 0 0 -18.89764,0 9.44882,9.44882 0 0 0 18.89764,0 z"
         style="fill:none;stroke:#000000"
         id="path159" /><path
         d="m 209.76378,1103.622 a 9.44882,9.44882 0 0 0 -18.89764,0 9.44882,9.44882 0 0 0 18.89764,0 z"
         style="fill:none;stroke:#000000"
         id="path161" /><path
         d="m 187.08661,1080.9449 a 9.448819,9.448819 0 0 0 -18.89763,0 9.448819,9.448819 0 0 0 18.89763,0 z"
         style="fill:none;stroke:#000000"
         id="path163" /><path
         d="m 28.346457,1012.9134 a 9.448819,9.448819 0 0 0 -18.897638,0 9.448819,9.448819 0 0 0 18.897638,0 z"
         style="fill:none;stroke:#000000"
         id="path165" /><path
         d="m 96.377953,1103.622 a 9.448819,9.448819 0 0 0 -18.897638,0 9.448819,9.448819 0 0 0 18.897638,0 z"
         style="fill:none;stroke:#000000"
         id="path167" /><path
         d="m 28.346457,1035.5906 a 9.448819,9.448819 0 0 0 -18.897638,0 9.448819,9.448819 0 0 0 18.897638,0 z"
         style="fill:none;stroke:#000000"
         id="path169" /><path
         d="m 119.05512,1012.9134 a 9.44882,9.44882 0 0 0 -18.89764,0 9.44882,9.44882 0 0 0 18.89764,0 z"
         style="fill:none;stroke:#000000"
         id="path171" /><path
         d="m 209.76378,1012.9134 a 9.44882,9.44882 0 0 0 -18.89764,0 9.44882,9.44882 0 0 0 18.89764,0 z"
         style="fill:none;stroke:#000000"
         id="path173" /><path
         d="m 73.700788,1058.2677 a 9.448819,9.448819 0 0 0 -18.897638,0 9.448819,9.448819 0 0 0 18.897638,0 z"
         style="fill:none;stroke:#000000"
         id="path175" /><path
         d="m 141.73228,1103.622 a 9.448819,9.448819 0 0 0 -18.89763,0 9.448819,9.448819 0 0 0 18.89763,0 z"
         style="fill:none;stroke:#000000"
         id="path177" /><path
         d="m 187.08661,1103.622 a 9.448819,9.448819 0 0 0 -18.89763,0 9.448819,9.448819 0 0 0 18.89763,0 z"
         style="fill:none;stroke:#000000"
         id="path179" /><path
         d="m 232.44094,1058.2677 a 9.448819,9.448819 0 0 0 -18.89763,0 9.448819,9.448819 0 0 0 18.89763,0 z"
         style="fill:none;stroke:#000000"
         id="path181" /><path
         d="m 232.44094,1035.5906 a 9.448819,9.448819 0 0 0 -18.89763,0 9.448819,9.448819 0 0 0 18.89763,0 z"
         style="fill:none;stroke:#000000"
         id="path183" /><path
         d="m 141.73228,1035.5906 a 9.448819,9.448819 0 0 0 -18.89763,0 9.448819,9.448819 0 0 0 18.89763,0 z"
         style="fill:none;stroke:#000000"
         id="path185" /><path
         d="m 164.40945,1012.9134 a 9.44882,9.44882 0 0 0 -18.89764,0 9.44882,9.44882 0 0 0 18.89764,0 z"
         style="fill:none;stroke:#000000"
         id="path187" /><path
         d="m 209.76378,1058.2677 a 9.44882,9.44882 0 0 0 -18.89764,0 9.44882,9.44882 0 0 0 18.89764,0 z"
         style="fill:none;stroke:#000000"
         id="path189" /><path
         d="m 73.700788,1080.9449 a 9.448819,9.448819 0 0 0 -18.897638,0 9.448819,9.448819 0 0 0 18.897638,0 z"
         style="fill:none;stroke:#000000"
         id="path191" /><path
         d="m 51.023622,1058.2677 a 9.448819,9.448819 0 0 0 -18.897637,0 9.448819,9.448819 0 0 0 18.897637,0 z"
         style="fill:none;stroke:#000000"
         id="path193" /><path
         d="m 232.44094,1012.9134 a 9.448819,9.448819 0 0 0 -18.89763,0 9.448819,9.448819 0 0 0 18.89763,0 z"
         style="fill:none;stroke:#000000"
         id="path195" /><path
         d="m 73.700788,1103.622 a 9.448819,9.448819 0 0 0 -18.897638,0 9.448819,9.448819 0 0 0 18.897638,0 z"
         style="fill:none;stroke:#000000"
         id="path197" /><path
         d="m 164.40945,1080.9449 a 9.44882,9.44882 0 0 0 -18.89764,0 9.44882,9.44882 0 0 0 18.89764,0 z"
         style="fill:none;stroke:#000000"
         id="path199" /><path
         d="m 96.377953,1058.2677 a 9.448819,9.448819 0 0 0 -18.897638,0 9.448819,9.448819 0 0 0 18.897638,0 z"
         style="fill:none;stroke:#000000"
         id="path201" /><path
         d="m 164.40945,1058.2677 a 9.44882,9.44882 0 0 0 -18.89764,0 9.44882,9.44882 0 0 0 18.89764,0 z"
         style="fill:none;stroke:#000000"
         id="path203" /><path
         d="m 51.023622,1035.5906 a 9.448819,9.448819 0 0 0 -18.897637,0 9.448819,9.448819 0 0 0 18.897637,0 z"
         style="fill:none;stroke:#000000"
         id="path205" /><path
         d="m 119.05512,1103.622 a 9.44882,9.44882 0 0 0 -18.89764,0 9.44882,9.44882 0 0 0 18.89764,0 z"
         style="fill:none;stroke:#000000"
         id="path207" /><path
         d="m 119.05512,1035.5906 a 9.44882,9.44882 0 0 0 -18.89764,0 9.44882,9.44882 0 0 0 18.89764,0 z"
         style="fill:none;stroke:#000000"
         id="path209" /><path
         d="m 96.377953,1035.5906 a 9.448819,9.448819 0 0 0 -18.897638,0 9.448819,9.448819 0 0 0 18.897638,0 z"
         style="fill:none;stroke:#000000"
         id="path211" /><path
         d="m 141.73228,1080.9449 a 9.448819,9.448819 0 0 0 -18.89763,0 9.448819,9.448819 0 0 0 18.89763,0 z"
         style="fill:none;stroke:#000000"
         id="path213" /><path
         d="m 141.73228,1058.2677 a 9.448819,9.448819 0 0 0 -18.89763,0 9.448819,9.448819 0 0 0 18.89763,0 z"
         style="fill:none;stroke:#000000"
         id="path215" /><path
         d="m 51.023622,1012.9134 a 9.448819,9.448819 0 0 0 -18.897637,0 9.448819,9.448819 0 0 0 18.897637,0 z"
         style="fill:none;stroke:#000000"
         id="path217" /><path
         d="m 209.76378,1035.5906 a 9.44882,9.44882 0 0 0 -18.89764,0 9.44882,9.44882 0 0 0 18.89764,0 z"
         style="fill:none;stroke:#000000"
         id="path219" /><path
         d="m 232.44094,1080.9449 a 9.448819,9.448819 0 0 0 -18.89763,0 9.448819,9.448819 0 0 0 18.89763,0 z"
         style="fill:none;stroke:#000000"
         id="path221" /><path
         d="m 141.73228,1012.9134 a 9.448819,9.448819 0 0 0 -18.89763,0 9.448819,9.448819 0 0 0 18.89763,0 z"
         style="fill:none;stroke:#000000"
         id="path223" /><path
         d="m 164.40945,1103.622 a 9.44882,9.44882 0 0 0 -18.89764,0 9.44882,9.44882 0 0 0 18.89764,0 z"
         style="fill:none;stroke:#000000"
         id="path225" /><path
         d="m 28.346457,1080.9449 a 9.448819,9.448819 0 0 0 -18.897638,0 9.448819,9.448819 0 0 0 18.897638,0 z"
         style="fill:none;stroke:#000000"
         id="path227" /><path
         d="m 232.44094,1103.622 a 9.448819,9.448819 0 0 0 -18.89763,0 9.448819,9.448819 0 0 0 18.89763,0 z"
         style="fill:none;stroke:#000000"
         id="path229" /><path
         d="m 96.377953,1080.9449 a 9.448819,9.448819 0 0 0 -18.897638,0 9.448819,9.448819 0 0 0 18.897638,0 z"
         style="fill:none;stroke:#000000"
         id="path231" /><path
         d="m 209.76378,1080.9449 a 9.44882,9.44882 0 0 0 -18.89764,0 9.44882,9.44882 0 0 0 18.89764,0 z"
         style="fill:none;stroke:#000000"
         id="path233" /><path
         d="m 187.08661,1035.5906 a 9.448819,9.448819 0 0 0 -18.89763,0 9.448819,9.448819 0 0 0 18.89763,0 z"
         style="fill:none;stroke:#000000"
         id="path235" /><path
         d="m 187.08661,1012.9134 a 9.448819,9.448819 0 0 0 -18.89763,0 9.448819,9.448819 0 0 0 18.89763,0 z"
         style="fill:none;stroke:#000000"
         id="path237" /><path
         d="M 0,1122.5197 H 401.68524 V 862.32741 H 0 Z"
         style="fill:none;stroke:#000000"
         id="path239" /></g></g></svg>
