0
SECTION
2
HEADER
9
$INSUNITS
70
4
9
$ACADVER
1
AC1014
9
$HANDSEED
5
FFFF
0
ENDSEC
0
SECTION
2
TABLES
0
TABLE
2
VPORT
5
8
100
AcDbSymbolTable
0
ENDTAB
0
TABLE
2
LTYPE
5
5
100
AcDbSymbolTable
0
LTYPE
5
14
100
AcDbSymbolTableRecord
100
AcDbLinetypeTableRecord
2
BYBLOCK
70
0
0
LTYPE
5
15
100
AcDbSymbolTableRecord
100
AcDbLinetypeTableRecord
2
BYLAYER
70
0
0
ENDTAB
0
TABLE
2
LAYER
5
2
100
AcDbSymbolTable
70
2
0
LAYER
5
50
100
AcDbSymbolTableRecord
100
AcDbLayerTableRecord
2
0
70
0
6
CONTINUOUS
0
ENDTAB
0
TABLE
2
STYLE
5
3
100
AcDbSymbolTable
70
1
0
STYLE
5
11
100
AcDbSymbolTableRecord
100
AcDbTextStyleTableRecord
2
STANDARD
70
0
0
ENDTAB
0
TABLE
2
VIEW
5
6
100
AcDbSymbolTable
70
0
0
ENDTAB
0
TABLE
2
UCS
5
7
100
AcDbSymbolTable
70
0
0
ENDTAB
0
TABLE
2
APPID
5
9
100
AcDbSymbolTable
70
2
0
APPID
5
12
100
AcDbSymbolTableRecord
100
AcDbRegAppTableRecord
2
ACAD
70
0
0
ENDTAB
0
TABLE
2
DIMSTYLE
5
A
100
AcDbSymbolTable
70
1
0
ENDTAB
0
TABLE
2
BLOCK_RECORD
5
1
100
AcDbSymbolTable
70
1
0
BLOCK_RECORD
5
1F
100
AcDbSymbolTableRecord
100
AcDbBlockTableRecord
2
*MODEL_SPACE
0
BLOCK_RECORD
5
1B
100
AcDbSymbolTableRecord
100
AcDbBlockTableRecord
2
*PAPER_SPACE
0
ENDTAB
0
ENDSEC
0
SECTION
2
BLOCKS
0
BLOCK
5
20
100
AcDbEntity
100
AcDbBlockBegin
2
*MODEL_SPACE
0
ENDBLK
5
21
100
AcDbEntity
100
AcDbBlockEnd
0
BLOCK
5
1C
100
AcDbEntity
100
AcDbBlockBegin
2
*PAPER_SPACE
0
ENDBLK
5
1D
100
AcDbEntity
100
AcDbBlockEnd
0
ENDSEC
0
SECTION
2
ENTITIES
0
LINE
5
100
100
AcDbEntity
8
0
100
AcDbLine
10
70
20
20
30
0
11
85
21
20
31
0
0
LWPOLYLINE
5
101
100
AcDbEntity
8
0
100
AcDbPolyline
90
4
70
1
43
0.0
10
105
20
11
10
105
20
16
10
90
20
16
10
90
20
11
0
LWPOLYLINE
5
102
100
AcDbEntity
8
0
100
AcDbPolyline
90
4
70
1
43
0.0
10
105
20
35.000000000000007
10
105
20
40
10
90
20
40
10
90
20
35.000000000000007
0
LINE
5
103
100
AcDbEntity
8
0
100
AcDbLine
10
70
20
35
30
0
11
85
21
35
31
0
0
LWPOLYLINE
5
104
100
AcDbEntity
8
0
100
AcDbPolyline
90
4
70
1
43
0.0
10
90
20
41.000000000000007
10
105
20
41.000000000000007
10
105
20
46.000000000000007
10
90
20
46.000000000000007
0
LINE
5
105
100
AcDbEntity
8
0
100
AcDbLine
10
70
20
30
30
0
11
85
21
30
31
0
0
LINE
5
106
100
AcDbEntity
8
0
100
AcDbLine
10
70
20
5
30
0
11
70
21
10
31
0
0
LINE
5
107
100
AcDbEntity
8
0
100
AcDbLine
10
70
20
10
30
0
11
85
21
10
31
0
0
LWPOLYLINE
5
108
100
AcDbEntity
8
0
100
AcDbPolyline
90
4
70
1
43
0.0
10
85
20
45
10
70
20
45
10
70
20
5
10
85
20
5
0
LWPOLYLINE
5
109
100
AcDbEntity
8
0
100
AcDbPolyline
90
4
70
1
43
0.0
10
105
20
34
10
90
20
34
10
90
20
29.000000000000004
10
105
20
29.000000000000004
0
LINE
5
110
100
AcDbEntity
8
0
100
AcDbLine
10
70
20
5
30
0
11
70
21
6.0000000894069672
31
0
0
LWPOLYLINE
5
111
100
AcDbEntity
8
0
100
AcDbPolyline
90
4
70
1
43
0.0
10
90
20
5
10
105
20
5
10
105
20
10
10
90
20
10
0
LINE
5
112
100
AcDbEntity
8
0
100
AcDbLine
10
70
20
25
30
0
11
85
21
25
31
0
0
LWPOLYLINE
5
113
100
AcDbEntity
8
0
100
AcDbPolyline
90
4
70
1
43
0.0
10
90
20
17
10
105
20
17
10
105
20
22
10
90
20
22
0
LWPOLYLINE
5
114
100
AcDbEntity
8
0
100
AcDbPolyline
90
4
70
1
43
0.0
10
90
20
28.000000000000004
10
90
20
23.000000000000004
10
105
20
23.000000000000004
10
105
20
28.000000000000004
0
LINE
5
115
100
AcDbEntity
8
0
100
AcDbLine
10
70
20
15
30
0
11
85
21
15
31
0
0
LINE
5
116
100
AcDbEntity
8
0
100
AcDbLine
10
70
20
40
30
0
11
85
21
40
31
0
0
LWPOLYLINE
5
117
100
AcDbEntity
8
0
100
AcDbPolyline
90
6
70
1
43
0.0
10
32.886751420453933
20
59.250000596046455
10
31.44337574747987
20
61.750000596046455
10
28.556624401531742
20
61.750000596046455
10
27.113248728557675
20
59.250000596046455
10
28.556624401531742
20
56.750000596046455
10
31.44337574747987
20
56.750000596046455
0
LWPOLYLINE
5
118
100
AcDbEntity
8
0
100
AcDbPolyline
90
6
70
1
43
0.0
10
32.886751420453933
20
48.250000596046448
10
31.44337574747987
20
50.750000596046448
10
28.556624401531742
20
50.750000596046448
10
27.113248728557675
20
48.250000596046448
10
28.556624401531742
20
45.750000596046448
10
31.44337574747987
20
45.750000596046448
0
LWPOLYLINE
5
119
100
AcDbEntity
8
0
100
AcDbPolyline
90
6
70
1
43
0.0
10
26.44337574747987
20
48.500000596046448
10
27.886751420453937
20
51.000000596046448
10
26.44337574747987
20
53.500000596046448
10
23.556624401531742
20
53.500000596046448
10
22.113248728557675
20
51.000000596046448
10
23.556624401531742
20
48.500000596046448
0
LWPOLYLINE
5
120
100
AcDbEntity
8
0
100
AcDbPolyline
90
6
70
1
43
0.0
10
38.556624401531742
20
67.250000596046448
10
37.113248728557679
20
64.750000596046448
10
38.556624401531742
20
62.250000596046455
10
41.44337574747987
20
62.250000596046455
10
42.886751420453933
20
64.750000596046448
10
41.44337574747987
20
67.250000596046448
0
LWPOLYLINE
5
121
100
AcDbEntity
8
0
100
AcDbPolyline
90
6
70
1
43
0.0
10
7.8867514204539351
20
51.000000596046448
10
6.4433757474798705
20
53.500000596046448
10
3.5566244015317405
20
53.500000596046448
10
2.1132487285576769
20
51.000000596046448
10
3.556624401531741
20
48.500000596046448
10
6.4433757474798696
20
48.500000596046448
0
LWPOLYLINE
5
122
100
AcDbEntity
8
0
100
AcDbPolyline
90
6
70
1
43
0.0
10
42.886751420453933
20
53.750000596046448
10
41.44337574747987
20
56.250000596046448
10
38.556624401531742
20
56.250000596046448
10
37.113248728557679
20
53.750000596046448
10
38.556624401531742
20
51.250000596046448
10
41.44337574747987
20
51.250000596046448
0
LWPOLYLINE
5
123
100
AcDbEntity
8
0
100
AcDbPolyline
90
6
70
1
43
0.0
10
37.886751420453933
20
62.000000596046448
10
36.44337574747987
20
64.500000596046448
10
33.556624401531742
20
64.500000596046448
10
32.113248728557679
20
62.000000596046448
10
33.556624401531742
20
59.500000596046448
10
36.44337574747987
20
59.500000596046448
0
LWPOLYLINE
5
124
100
AcDbEntity
8
0
100
AcDbPolyline
90
6
70
1
43
0.0
10
38.556624401531742
20
61.750000596046455
10
37.113248728557679
20
59.250000596046455
10
38.556624401531742
20
56.750000596046455
10
41.44337574747987
20
56.750000596046455
10
42.886751420453933
20
59.250000596046455
10
41.44337574747987
20
61.750000596046455
0
LWPOLYLINE
5
125
100
AcDbEntity
8
0
100
AcDbPolyline
90
6
70
1
43
0.0
10
31.44337574747987
20
62.250000596046455
10
32.886751420453933
20
64.750000596046448
10
31.44337574747987
20
67.250000596046448
10
28.556624401531742
20
67.250000596046448
10
27.113248728557675
20
64.750000596046448
10
28.556624401531742
20
62.250000596046455
0
LWPOLYLINE
5
126
100
AcDbEntity
8
0
100
AcDbPolyline
90
6
70
1
43
0.0
10
37.886751420453933
20
51.000000596046448
10
36.44337574747987
20
53.500000596046448
10
33.556624401531742
20
53.500000596046448
10
32.113248728557679
20
51.000000596046448
10
33.556624401531742
20
48.500000596046448
10
36.44337574747987
20
48.500000596046448
0
LWPOLYLINE
5
127
100
AcDbEntity
8
0
100
AcDbPolyline
90
6
70
1
43
0.0
10
36.44337574747987
20
59.000000596046448
10
33.556624401531742
20
59.000000596046448
10
32.113248728557679
20
56.500000596046448
10
33.556624401531742
20
54.000000596046448
10
36.44337574747987
20
54.000000596046448
10
37.886751420453933
20
56.500000596046448
0
LWPOLYLINE
5
128
100
AcDbEntity
8
0
100
AcDbPolyline
90
6
70
1
43
0.0
10
41.44337574747987
20
45.750000596046448
10
42.886751420453933
20
48.250000596046448
10
41.44337574747987
20
50.750000596046448
10
38.556624401531742
20
50.750000596046448
10
37.113248728557679
20
48.250000596046448
10
38.556624401531742
20
45.750000596046448
0
LWPOLYLINE
5
129
100
AcDbEntity
8
0
100
AcDbPolyline
90
6
70
1
43
0.0
10
37.886751420453933
20
45.500000596046448
10
36.44337574747987
20
48.000000596046448
10
33.556624401531742
20
48.000000596046448
10
32.113248728557679
20
45.500000596046448
10
33.556624401531742
20
43.000000596046448
10
36.44337574747987
20
43.000000596046448
0
LWPOLYLINE
5
130
100
AcDbEntity
8
0
100
AcDbPolyline
90
6
70
1
43
0.0
10
33.556624401531742
20
42.500000596046448
10
32.113248728557679
20
40.000000596046448
10
33.556624401531742
20
37.500000596046448
10
36.44337574747987
20
37.500000596046448
10
37.886751420453933
20
40.000000596046448
10
36.44337574747987
20
42.500000596046448
0
LWPOLYLINE
5
131
100
AcDbEntity
8
0
100
AcDbPolyline
90
6
70
1
43
0.0
10
37.113248728557679
20
42.750000596046448
10
38.556624401531742
20
40.250000596046448
10
41.44337574747987
20
40.250000596046448
10
42.886751420453933
20
42.750000596046448
10
41.44337574747987
20
45.250000596046448
10
38.556624401531742
20
45.250000596046448
0
LWPOLYLINE
5
132
100
AcDbEntity
8
0
100
AcDbPolyline
90
6
70
1
43
0.0
10
16.44337574747987
20
59.000000596046448
10
13.556624401531741
20
59.000000596046448
10
12.113248728557677
20
56.500000596046448
10
13.556624401531741
20
54.000000596046448
10
16.44337574747987
20
54.000000596046448
10
17.886751420453933
20
56.500000596046448
0
LWPOLYLINE
5
133
100
AcDbEntity
8
0
100
AcDbPolyline
90
6
70
1
43
0.0
10
16.44337574747987
20
42.500000596046448
10
13.556624401531741
20
42.500000596046448
10
12.113248728557677
20
40.000000596046448
10
13.556624401531741
20
37.500000596046448
10
16.44337574747987
20
37.500000596046448
10
17.886751420453933
20
40.000000596046448
0
LWPOLYLINE
5
134
100
AcDbEntity
8
0
100
AcDbPolyline
90
6
70
1
43
0.0
10
13.556624401531741
20
53.500000596046448
10
12.113248728557677
20
51.000000596046448
10
13.556624401531741
20
48.500000596046448
10
16.44337574747987
20
48.500000596046448
10
17.886751420453933
20
51.000000596046448
10
16.44337574747987
20
53.500000596046448
0
LWPOLYLINE
5
135
100
AcDbEntity
8
0
100
AcDbPolyline
90
6
70
1
43
0.0
10
16.44337574747987
20
64.500000596046448
10
13.556624401531741
20
64.500000596046448
10
12.113248728557677
20
62.000000596046448
10
13.556624401531741
20
59.500000596046448
10
16.44337574747987
20
59.500000596046448
10
17.886751420453933
20
62.000000596046448
0
LWPOLYLINE
5
136
100
AcDbEntity
8
0
100
AcDbPolyline
90
6
70
1
43
0.0
10
16.44337574747987
20
48.000000596046448
10
13.556624401531741
20
48.000000596046448
10
12.113248728557677
20
45.500000596046448
10
13.556624401531741
20
43.000000596046448
10
16.44337574747987
20
43.000000596046448
10
17.886751420453933
20
45.500000596046448
0
LWPOLYLINE
5
137
100
AcDbEntity
8
0
100
AcDbPolyline
90
6
70
1
43
0.0
10
32.886751420453933
20
53.750000596046448
10
31.44337574747987
20
56.250000596046448
10
28.556624401531742
20
56.250000596046448
10
27.113248728557675
20
53.750000596046448
10
28.556624401531742
20
51.250000596046448
10
31.44337574747987
20
51.250000596046448
0
LWPOLYLINE
5
138
100
AcDbEntity
8
0
100
AcDbPolyline
90
6
70
1
43
0.0
10
32.886751420453933
20
42.750000596046448
10
31.44337574747987
20
45.250000596046448
10
28.556624401531742
20
45.250000596046448
10
27.113248728557675
20
42.750000596046448
10
28.556624401531742
20
40.250000596046448
10
31.44337574747987
20
40.250000596046448
0
LWPOLYLINE
5
139
100
AcDbEntity
8
0
100
AcDbPolyline
90
6
70
1
43
0.0
10
8.5566244015317405
20
50.750000596046448
10
7.1132487285576769
20
48.250000596046448
10
8.5566244015317405
20
45.750000596046448
10
11.44337574747987
20
45.750000596046448
10
12.886751420453935
20
48.250000596046448
10
11.443375747479871
20
50.750000596046448
0
LWPOLYLINE
5
140
100
AcDbEntity
8
0
100
AcDbPolyline
90
6
70
1
43
0.0
10
3.556624401531741
20
54.000000596046448
10
6.4433757474798696
20
54.000000596046448
10
7.8867514204539351
20
56.500000596046448
10
6.4433757474798705
20
59.000000596046448
10
3.5566244015317405
20
59.000000596046448
10
2.1132487285576769
20
56.500000596046448
0
LWPOLYLINE
5
141
100
AcDbEntity
8
0
100
AcDbPolyline
90
6
70
1
43
0.0
10
26.44337574747987
20
43.000000596046448
10
27.886751420453937
20
45.500000596046448
10
26.44337574747987
20
48.000000596046448
10
23.556624401531742
20
48.000000596046448
10
22.113248728557675
20
45.500000596046448
10
23.556624401531742
20
43.000000596046448
0
LWPOLYLINE
5
142
100
AcDbEntity
8
0
100
AcDbPolyline
90
6
70
1
43
0.0
10
2.1132487285576769
20
40.000000596046448
10
3.556624401531741
20
37.500000596046448
10
6.4433757474798696
20
37.500000596046448
10
7.8867514204539351
20
40.000000596046448
10
6.4433757474798705
20
42.500000596046448
10
3.5566244015317405
20
42.500000596046448
0
LWPOLYLINE
5
143
100
AcDbEntity
8
0
100
AcDbPolyline
90
6
70
1
43
0.0
10
21.44337574747987
20
40.250000596046448
10
22.886751420453937
20
42.750000596046448
10
21.44337574747987
20
45.250000596046448
10
18.556624401531742
20
45.250000596046448
10
17.113248728557679
20
42.750000596046448
10
18.556624401531742
20
40.250000596046448
0
LWPOLYLINE
5
144
100
AcDbEntity
8
0
100
AcDbPolyline
90
6
70
1
43
0.0
10
21.44337574747987
20
45.750000596046448
10
22.886751420453937
20
48.250000596046448
10
21.44337574747987
20
50.750000596046448
10
18.556624401531742
20
50.750000596046448
10
17.113248728557679
20
48.250000596046448
10
18.556624401531742
20
45.750000596046448
0
LWPOLYLINE
5
145
100
AcDbEntity
8
0
100
AcDbPolyline
90
6
70
1
43
0.0
10
17.113248728557679
20
64.750000596046448
10
18.556624401531742
20
62.250000596046455
10
21.44337574747987
20
62.250000596046455
10
22.886751420453937
20
64.750000596046448
10
21.44337574747987
20
67.250000596046448
10
18.556624401531742
20
67.250000596046448
0
LWPOLYLINE
5
146
100
AcDbEntity
8
0
100
AcDbPolyline
90
6
70
1
43
0.0
10
26.44337574747987
20
59.500000596046448
10
27.886751420453937
20
62.000000596046448
10
26.44337574747987
20
64.500000596046448
10
23.556624401531742
20
64.500000596046448
10
22.113248728557675
20
62.000000596046448
10
23.556624401531742
20
59.500000596046448
0
LWPOLYLINE
5
147
100
AcDbEntity
8
0
100
AcDbPolyline
90
6
70
1
43
0.0
10
22.113248728557675
20
40.000000596046448
10
23.556624401531742
20
37.500000596046448
10
26.44337574747987
20
37.500000596046448
10
27.886751420453937
20
40.000000596046448
10
26.44337574747987
20
42.500000596046448
10
23.556624401531742
20
42.500000596046448
0
LWPOLYLINE
5
148
100
AcDbEntity
8
0
100
AcDbPolyline
90
6
70
1
43
0.0
10
6.4433757474798696
20
59.500000596046448
10
7.8867514204539351
20
62.000000596046448
10
6.4433757474798705
20
64.500000596046448
10
3.5566244015317405
20
64.500000596046448
10
2.1132487285576769
20
62.000000596046448
10
3.556624401531741
20
59.500000596046448
0
LWPOLYLINE
5
149
100
AcDbEntity
8
0
100
AcDbPolyline
90
6
70
1
43
0.0
10
22.886751420453937
20
53.750000596046448
10
21.44337574747987
20
56.250000596046448
10
18.556624401531742
20
56.250000596046448
10
17.113248728557679
20
53.750000596046448
10
18.556624401531742
20
51.250000596046448
10
21.44337574747987
20
51.250000596046448
0
LWPOLYLINE
5
150
100
AcDbEntity
8
0
100
AcDbPolyline
90
6
70
1
43
0.0
10
11.443375747479871
20
67.250000596046448
10
8.5566244015317405
20
67.250000596046448
10
7.1132487285576769
20
64.750000596046448
10
8.5566244015317405
20
62.250000596046455
10
11.44337574747987
20
62.250000596046455
10
12.886751420453935
20
64.750000596046448
0
LWPOLYLINE
5
151
100
AcDbEntity
8
0
100
AcDbPolyline
90
6
70
1
43
0.0
10
8.5566244015317405
20
61.750000596046455
10
7.1132487285576769
20
59.250000596046455
10
8.5566244015317405
20
56.750000596046455
10
11.44337574747987
20
56.750000596046455
10
12.886751420453935
20
59.250000596046455
10
11.443375747479871
20
61.750000596046455
0
LWPOLYLINE
5
152
100
AcDbEntity
8
0
100
AcDbPolyline
90
6
70
1
43
0.0
10
7.8867514204539351
20
45.500000596046448
10
6.4433757474798705
20
48.000000596046448
10
3.5566244015317405
20
48.000000596046448
10
2.1132487285576769
20
45.500000596046448
10
3.556624401531741
20
43.000000596046448
10
6.4433757474798696
20
43.000000596046448
0
LWPOLYLINE
5
153
100
AcDbEntity
8
0
100
AcDbPolyline
90
6
70
1
43
0.0
10
11.443375747479871
20
56.250000596046448
10
8.5566244015317405
20
56.250000596046448
10
7.1132487285576769
20
53.750000596046448
10
8.5566244015317405
20
51.250000596046448
10
11.44337574747987
20
51.250000596046448
10
12.886751420453935
20
53.750000596046448
0
LWPOLYLINE
5
154
100
AcDbEntity
8
0
100
AcDbPolyline
90
6
70
1
43
0.0
10
23.556624401531742
20
59.000000596046448
10
22.113248728557675
20
56.500000596046448
10
23.556624401531742
20
54.000000596046448
10
26.44337574747987
20
54.000000596046448
10
27.886751420453937
20
56.500000596046448
10
26.44337574747987
20
59.000000596046448
0
LWPOLYLINE
5
155
100
AcDbEntity
8
0
100
AcDbPolyline
90
6
70
1
43
0.0
10
8.5566244015317405
20
45.250000596046448
10
7.1132487285576769
20
42.750000596046448
10
8.5566244015317405
20
40.250000596046448
10
11.44337574747987
20
40.250000596046448
10
12.886751420453935
20
42.750000596046448
10
11.443375747479871
20
45.250000596046448
0
LWPOLYLINE
5
156
100
AcDbEntity
8
0
100
AcDbPolyline
90
6
70
1
43
0.0
10
18.556624401531742
20
61.750000596046455
10
17.113248728557679
20
59.250000596046455
10
18.556624401531742
20
56.750000596046455
10
21.44337574747987
20
56.750000596046455
10
22.886751420453937
20
59.250000596046455
10
21.44337574747987
20
61.750000596046455
0
CIRCLE
5
157
100
AcDbEntity
8
0
100
AcDbCircle
10
17.000000074505806
20
23.00000007450581
30
0
40
2.5000000000000004
210
0
220
0
230
1
0
CIRCLE
5
158
100
AcDbEntity
8
0
100
AcDbCircle
10
5.000000074505806
20
5.000000074505806
30
0
40
2.5000000000000004
210
0
220
0
230
1
0
CIRCLE
5
159
100
AcDbEntity
8
0
100
AcDbCircle
10
47.00000007450582
20
17.000000074505806
30
0
40
2.5000000000000004
210
0
220
0
230
1
0
CIRCLE
5
160
100
AcDbEntity
8
0
100
AcDbCircle
10
11.000000074505806
20
11.000000074505806
30
0
40
2.5000000000000004
210
0
220
0
230
1
0
CIRCLE
5
161
100
AcDbEntity
8
0
100
AcDbCircle
10
17.000000074505806
20
29.00000007450581
30
0
40
2.5000000000000004
210
0
220
0
230
1
0
CIRCLE
5
162
100
AcDbEntity
8
0
100
AcDbCircle
10
5.000000074505806
20
17.000000074505806
30
0
40
2.5000000000000004
210
0
220
0
230
1
0
CIRCLE
5
163
100
AcDbEntity
8
0
100
AcDbCircle
10
29.00000007450581
20
17.000000074505806
30
0
40
2.5000000000000004
210
0
220
0
230
1
0
CIRCLE
5
164
100
AcDbEntity
8
0
100
AcDbCircle
10
11.000000074505806
20
5.000000074505806
30
0
40
2.5000000000000004
210
0
220
0
230
1
0
CIRCLE
5
165
100
AcDbEntity
8
0
100
AcDbCircle
10
23.00000007450581
20
29.00000007450581
30
0
40
2.5000000000000004
210
0
220
0
230
1
0
CIRCLE
5
166
100
AcDbEntity
8
0
100
AcDbCircle
10
29.00000007450581
20
11.000000074505806
30
0
40
2.5000000000000004
210
0
220
0
230
1
0
CIRCLE
5
167
100
AcDbEntity
8
0
100
AcDbCircle
10
41.000000074505813
20
23.00000007450581
30
0
40
2.5000000000000004
210
0
220
0
230
1
0
CIRCLE
5
168
100
AcDbEntity
8
0
100
AcDbCircle
10
53.000000074505813
20
5.000000074505806
30
0
40
2.5000000000000004
210
0
220
0
230
1
0
CIRCLE
5
169
100
AcDbEntity
8
0
100
AcDbCircle
10
47.00000007450582
20
11.000000074505806
30
0
40
2.5000000000000004
210
0
220
0
230
1
0
CIRCLE
5
170
100
AcDbEntity
8
0
100
AcDbCircle
10
5.000000074505806
20
29.00000007450581
30
0
40
2.5000000000000004
210
0
220
0
230
1
0
CIRCLE
5
171
100
AcDbEntity
8
0
100
AcDbCircle
10
23.00000007450581
20
5.000000074505806
30
0
40
2.5000000000000004
210
0
220
0
230
1
0
CIRCLE
5
172
100
AcDbEntity
8
0
100
AcDbCircle
10
5.000000074505806
20
23.00000007450581
30
0
40
2.5000000000000004
210
0
220
0
230
1
0
CIRCLE
5
173
100
AcDbEntity
8
0
100
AcDbCircle
10
29.00000007450581
20
29.00000007450581
30
0
40
2.5000000000000004
210
0
220
0
230
1
0
CIRCLE
5
174
100
AcDbEntity
8
0
100
AcDbCircle
10
53.000000074505813
20
29.00000007450581
30
0
40
2.5000000000000004
210
0
220
0
230
1
0
CIRCLE
5
175
100
AcDbEntity
8
0
100
AcDbCircle
10
17.000000074505806
20
17.000000074505806
30
0
40
2.5000000000000004
210
0
220
0
230
1
0
CIRCLE
5
176
100
AcDbEntity
8
0
100
AcDbCircle
10
35.000000074505813
20
5.000000074505806
30
0
40
2.5000000000000004
210
0
220
0
230
1
0
CIRCLE
5
177
100
AcDbEntity
8
0
100
AcDbCircle
10
47.00000007450582
20
5.000000074505806
30
0
40
2.5000000000000004
210
0
220
0
230
1
0
CIRCLE
5
178
100
AcDbEntity
8
0
100
AcDbCircle
10
59.000000074505806
20
17.000000074505806
30
0
40
2.5000000000000004
210
0
220
0
230
1
0
CIRCLE
5
179
100
AcDbEntity
8
0
100
AcDbCircle
10
59.000000074505806
20
23.00000007450581
30
0
40
2.5000000000000004
210
0
220
0
230
1
0
CIRCLE
5
180
100
AcDbEntity
8
0
100
AcDbCircle
10
35.000000074505813
20
23.00000007450581
30
0
40
2.5000000000000004
210
0
220
0
230
1
0
CIRCLE
5
181
100
AcDbEntity
8
0
100
AcDbCircle
10
41.000000074505813
20
29.00000007450581
30
0
40
2.5000000000000004
210
0
220
0
230
1
0
CIRCLE
5
182
100
AcDbEntity
8
0
100
AcDbCircle
10
53.000000074505813
20
17.000000074505806
30
0
40
2.5000000000000004
210
0
220
0
230
1
0
CIRCLE
5
183
100
AcDbEntity
8
0
100
AcDbCircle
10
17.000000074505806
20
11.000000074505806
30
0
40
2.5000000000000004
210
0
220
0
230
1
0
CIRCLE
5
184
100
AcDbEntity
8
0
100
AcDbCircle
10
11.000000074505806
20
17.000000074505806
30
0
40
2.5000000000000004
210
0
220
0
230
1
0
CIRCLE
5
185
100
AcDbEntity
8
0
100
AcDbCircle
10
59.000000074505806
20
29.00000007450581
30
0
40
2.5000000000000004
210
0
220
0
230
1
0
CIRCLE
5
186
100
AcDbEntity
8
0
100
AcDbCircle
10
17.000000074505806
20
5.000000074505806
30
0
40
2.5000000000000004
210
0
220
0
230
1
0
CIRCLE
5
187
100
AcDbEntity
8
0
100
AcDbCircle
10
41.000000074505813
20
11.000000074505806
30
0
40
2.5000000000000004
210
0
220
0
230
1
0
CIRCLE
5
188
100
AcDbEntity
8
0
100
AcDbCircle
10
23.00000007450581
20
17.000000074505806
30
0
40
2.5000000000000004
210
0
220
0
230
1
0
CIRCLE
5
189
100
AcDbEntity
8
0
100
AcDbCircle
10
41.000000074505813
20
17.000000074505806
30
0
40
2.5000000000000004
210
0
220
0
230
1
0
CIRCLE
5
190
100
AcDbEntity
8
0
100
AcDbCircle
10
11.000000074505806
20
23.00000007450581
30
0
40
2.5000000000000004
210
0
220
0
230
1
0
CIRCLE
5
191
100
AcDbEntity
8
0
100
AcDbCircle
10
29.00000007450581
20
5.000000074505806
30
0
40
2.5000000000000004
210
0
220
0
230
1
0
CIRCLE
5
192
100
AcDbEntity
8
0
100
AcDbCircle
10
29.00000007450581
20
23.00000007450581
30
0
40
2.5000000000000004
210
0
220
0
230
1
0
CIRCLE
5
193
100
AcDbEntity
8
0
100
AcDbCircle
10
23.00000007450581
20
23.00000007450581
30
0
40
2.5000000000000004
210
0
220
0
230
1
0
CIRCLE
5
194
100
AcDbEntity
8
0
100
AcDbCircle
10
35.000000074505813
20
11.000000074505806
30
0
40
2.5000000000000004
210
0
220
0
230
1
0
CIRCLE
5
195
100
AcDbEntity
8
0
100
AcDbCircle
10
35.000000074505813
20
17.000000074505806
30
0
40
2.5000000000000004
210
0
220
0
230
1
0
CIRCLE
5
196
100
AcDbEntity
8
0
100
AcDbCircle
10
11.000000074505806
20
29.00000007450581
30
0
40
2.5000000000000004
210
0
220
0
230
1
0
CIRCLE
5
197
100
AcDbEntity
8
0
100
AcDbCircle
10
53.000000074505813
20
23.00000007450581
30
0
40
2.5000000000000004
210
0
220
0
230
1
0
CIRCLE
5
198
100
AcDbEntity
8
0
100
AcDbCircle
10
59.000000074505806
20
11.000000074505806
30
0
40
2.5000000000000004
210
0
220
0
230
1
0
CIRCLE
5
199
100
AcDbEntity
8
0
100
AcDbCircle
10
35.000000074505813
20
29.00000007450581
30
0
40
2.5000000000000004
210
0
220
0
230
1
0
CIRCLE
5
200
100
AcDbEntity
8
0
100
AcDbCircle
10
41.000000074505813
20
5.000000074505806
30
0
40
2.5000000000000004
210
0
220
0
230
1
0
CIRCLE
5
201
100
AcDbEntity
8
0
100
AcDbCircle
10
5.000000074505806
20
11.000000074505806
30
0
40
2.5000000000000004
210
0
220
0
230
1
0
CIRCLE
5
202
100
AcDbEntity
8
0
100
AcDbCircle
10
59.000000074505806
20
5.000000074505806
30
0
40
2.5000000000000004
210
0
220
0
230
1
0
CIRCLE
5
203
100
AcDbEntity
8
0
100
AcDbCircle
10
23.00000007450581
20
11.000000074505806
30
0
40
2.5000000000000004
210
0
220
0
230
1
0
CIRCLE
5
204
100
AcDbEntity
8
0
100
AcDbCircle
10
53.000000074505813
20
11.000000074505806
30
0
40
2.5000000000000004
210
0
220
0
230
1
0
CIRCLE
5
205
100
AcDbEntity
8
0
100
AcDbCircle
10
47.00000007450582
20
23.00000007450581
30
0
40
2.5000000000000004
210
0
220
0
230
1
0
CIRCLE
5
206
100
AcDbEntity
8
0
100
AcDbCircle
10
47.00000007450582
20
29.00000007450581
30
0
40
2.5000000000000004
210
0
220
0
230
1
0
LWPOLYLINE
5
207
100
AcDbEntity
8
0
100
AcDbPolyline
90
4
70
1
43
0.0
10
0
20
0
10
110
20
1.2325951644078309e-31
10
110
20
70
10
-3.6977854932234928e-31
20
70
0
ENDSEC
0
SECTION
2
OBJECTS
0
DICTIONARY
5
C
100
AcDbDictionary
3
ACAD_GROUP
350
D
3
ACAD_MLINESTYLE
350
17
0
DICTIONARY
5
D
100
AcDbDictionary
0
DICTIONARY
5
1A
330
C
100
AcDbDictionary
0
DICTIONARY
5
17
100
AcDbDictionary
0
ENDSEC
0
EOF
