0
SECTION
2
HEADER
9
$INSUNITS
70
4
9
$ACADVER
1
AC1014
9
$HANDSEED
5
FFFF
0
ENDSEC
0
SECTION
2
TABLES
0
TABLE
2
VPORT
5
8
100
AcDbSymbolTable
0
ENDTAB
0
TABLE
2
LTYPE
5
5
100
AcDbSymbolTable
0
LTYPE
5
14
100
AcDbSymbolTableRecord
100
AcDbLinetypeTableRecord
2
BYBLOCK
70
0
0
LTYPE
5
15
100
AcDbSymbolTableRecord
100
AcDbLinetypeTableRecord
2
BYLAYER
70
0
0
ENDTAB
0
TABLE
2
LAYER
5
2
100
AcDbSymbolTable
70
2
0
LAYER
5
50
100
AcDbSymbolTableRecord
100
AcDbLayerTableRecord
2
0
70
0
6
CONTINUOUS
0
ENDTAB
0
TABLE
2
STYLE
5
3
100
AcDbSymbolTable
70
1
0
STYLE
5
11
100
AcDbSymbolTableRecord
100
AcDbTextStyleTableRecord
2
STANDARD
70
0
0
ENDTAB
0
TABLE
2
VIEW
5
6
100
AcDbSymbolTable
70
0
0
ENDTAB
0
TABLE
2
UCS
5
7
100
AcDbSymbolTable
70
0
0
ENDTAB
0
TABLE
2
APPID
5
9
100
AcDbSymbolTable
70
2
0
APPID
5
12
100
AcDbSymbolTableRecord
100
AcDbRegAppTableRecord
2
ACAD
70
0
0
ENDTAB
0
TABLE
2
DIMSTYLE
5
A
100
AcDbSymbolTable
70
1
0
ENDTAB
0
TABLE
2
BLOCK_RECORD
5
1
100
AcDbSymbolTable
70
1
0
BLOCK_RECORD
5
1F
100
AcDbSymbolTableRecord
100
AcDbBlockTableRecord
2
*MODEL_SPACE
0
BLOCK_RECORD
5
1B
100
AcDbSymbolTableRecord
100
AcDbBlockTableRecord
2
*PAPER_SPACE
0
ENDTAB
0
ENDSEC
0
SECTION
2
BLOCKS
0
BLOCK
5
20
100
AcDbEntity
100
AcDbBlockBegin
2
*MODEL_SPACE
0
ENDBLK
5
21
100
AcDbEntity
100
AcDbBlockEnd
0
BLOCK
5
1C
100
AcDbEntity
100
AcDbBlockBegin
2
*PAPER_SPACE
0
ENDBLK
5
1D
100
AcDbEntity
100
AcDbBlockEnd
0
ENDSEC
0
SECTION
2
ENTITIES
0
ARC
5
100
100
AcDbEntity
8
0
100
AcDbCircle
10
14.750224630566784
20
1.2904301223324388
30
0
40
1.25
210
0
220
0
230
1
100
AcDbArc
50
-90.056308448937642
51
2.4765307441047471
0
ARC
5
101
100
AcDbEntity
8
0
100
AcDbCircle
10
-12.751571244746946
20
3.7675723359893309
30
0
40
1.2499999999999969
210
0
220
0
230
1
100
AcDbArc
50
180.04310264868479
51
270.04310264869258
0
ARC
5
102
100
AcDbEntity
8
0
100
AcDbCircle
10
-12.75084496317611
20
-1.1825439097518873
30
0
40
1.25
210
0
220
-0
230
1
100
AcDbArc
50
89.943691551062059
51
179.94369155106722
0
ARC
5
103
100
AcDbEntity
8
0
100
AcDbCircle
10
14.750102941557435
20
6.2882606781821382
30
0
40
1.2500000000000198
210
0
220
-0
230
1
100
AcDbArc
50
2.3432331462551339
51
90.043102648692695
0
LINE
5
104
100
AcDbEntity
8
0
100
AcDbLine
10
-14.000844359530777
20
-1.1813154501614245
30
0
11
-13.998387440349616
21
1.3186833425480369
31
0
0
LINE
5
105
100
AcDbEntity
8
0
100
AcDbLine
10
14.749162587726108
20
7.538260324475976
30
0
11
-12.750630890915616
21
7.5175726896955153
31
0
0
LINE
5
106
100
AcDbEntity
8
0
100
AcDbLine
10
15.999057136764794
20
6.3444428195731124
30
0
11
15.999057727545347
21
6.3393678455653646
31
0
0
ARC
5
107
100
AcDbEntity
8
0
100
AcDbCircle
10
14.750102941557435
20
1.28826067818214
30
0
40
1.2500000000000195
210
0
220
-0
230
1
100
AcDbArc
50
2.3432331462549785
51
90.043102648692695
0
LINE
5
108
100
AcDbEntity
8
0
100
AcDbLine
10
14.749162587726108
20
2.5382603244759783
30
0
11
-12.750630890915623
21
2.5175726896955153
31
0
0
LINE
5
109
100
AcDbEntity
8
0
100
AcDbLine
10
-12.749616503585536
20
0.067455486602780584
30
0
11
14.748996170976216
21
0.040430725977770865
31
0
0
ARC
5
110
100
AcDbEntity
8
0
100
AcDbCircle
10
-12.751571244746946
20
58.767572335989314
30
0
40
1.2499999999999969
210
0
220
0
230
1
100
AcDbArc
50
180.04310264868479
51
270.04310264869258
0
LINE
5
111
100
AcDbEntity
8
0
100
AcDbLine
10
14.749162587726126
20
17.538260324475953
30
0
11
-12.750630890915616
21
17.517572689695513
31
0
0
ARC
5
112
100
AcDbEntity
8
0
100
AcDbCircle
10
-12.751571244746946
20
13.767572335989328
30
0
40
1.2499999999999969
210
0
220
0
230
1
100
AcDbArc
50
180.04310264868479
51
270.04310264869258
0
LINE
5
113
100
AcDbEntity
8
0
100
AcDbLine
10
15.999057136764785
20
1.3444428195731133
30
0
11
15.999057727545347
21
1.3393678455653633
31
0
0
ARC
5
114
100
AcDbEntity
8
0
100
AcDbCircle
10
-12.75084496317611
20
58.817456090248108
30
0
40
1.2500000000000027
210
0
220
-0
230
1
100
AcDbArc
50
89.943691551062059
51
179.94369155106722
0
LINE
5
115
100
AcDbEntity
8
0
100
AcDbLine
10
14.749162587726126
20
37.538260324475949
30
0
11
-12.750630890915616
21
37.517572689695506
31
0
0
ARC
5
116
100
AcDbEntity
8
0
100
AcDbCircle
10
-12.75084496317611
20
18.817456090248111
30
0
40
1.2500000000000004
210
0
220
-0
230
1
100
AcDbArc
50
89.943691551062059
51
179.94369155106722
0
ARC
5
117
100
AcDbEntity
8
0
100
AcDbCircle
10
14.750102941557435
20
51.288260678182134
30
0
40
1.2500000000000195
210
0
220
-0
230
1
100
AcDbArc
50
2.3432331462549785
51
90.043102648692695
0
LINE
5
118
100
AcDbEntity
8
0
100
AcDbLine
10
15.999057136764794
20
31.344442819573111
30
0
11
15.999057727545365
21
31.339367845565356
31
0
0
ARC
5
119
100
AcDbEntity
8
0
100
AcDbCircle
10
14.750224630566784
20
11.290430122332435
30
0
40
1.2499999999999982
210
0
220
0
230
1
100
AcDbArc
50
-90.056308448937642
51
2.4765307441048945
0
ARC
5
120
100
AcDbEntity
8
0
100
AcDbCircle
10
-12.751571244746946
20
23.767572335989332
30
0
40
1.2499999999999969
210
0
220
0
230
1
100
AcDbArc
50
180.04310264868479
51
270.04310264869258
0
ARC
5
121
100
AcDbEntity
8
0
100
AcDbCircle
10
14.750102941557435
20
16.288260678182134
30
0
40
1.2500000000000195
210
0
220
-0
230
1
100
AcDbArc
50
2.3432331462546672
51
90.043102648691885
0
ARC
5
122
100
AcDbEntity
8
0
100
AcDbCircle
10
-12.751571244746946
20
28.767572335989332
30
0
40
1.2499999999999969
210
0
220
0
230
1
100
AcDbArc
50
180.04310264868479
51
270.04310264869258
0
ARC
5
123
100
AcDbEntity
8
0
100
AcDbCircle
10
14.750102941557435
20
41.288260678182134
30
0
40
1.2500000000000195
210
0
220
-0
230
1
100
AcDbArc
50
2.3432331462549785
51
90.043102648692695
0
ARC
5
124
100
AcDbEntity
8
0
100
AcDbCircle
10
-12.751571244746946
20
38.767572335989321
30
0
40
1.2499999999999969
210
0
220
0
230
1
100
AcDbArc
50
180.04310264868479
51
270.04310264869287
0
LINE
5
125
100
AcDbEntity
8
0
100
AcDbLine
10
-12.749616503585548
20
10.067455486602777
30
0
11
14.748996170976216
21
10.040430725977769
31
0
0
LINE
5
126
100
AcDbEntity
8
0
100
AcDbLine
10
15.999057136764794
20
36.344442819573104
30
0
11
15.999057727545365
21
36.339367845565356
31
0
0
LINE
5
127
100
AcDbEntity
8
0
100
AcDbLine
10
14.749162587726108
20
42.538260324475978
30
0
11
-12.750630890915616
21
42.517572689695513
31
0
0
ARC
5
128
100
AcDbEntity
8
0
100
AcDbCircle
10
14.750102941557435
20
26.288260678182134
30
0
40
1.2500000000000195
210
0
220
-0
230
1
100
AcDbArc
50
2.3432331462549785
51
90.043102648692695
0
ARC
5
129
100
AcDbEntity
8
0
100
AcDbCircle
10
14.750224630566784
20
56.290430122332431
30
0
40
1.2500000000000027
210
0
220
0
230
1
100
AcDbArc
50
-90.056308448937642
51
2.4765307441046001
0
ARC
5
130
100
AcDbEntity
8
0
100
AcDbCircle
10
-12.75084496317611
20
53.817456090248108
30
0
40
1.2500000000000027
210
0
220
-0
230
1
100
AcDbArc
50
89.943691551062059
51
179.94369155106722
0
ARC
5
131
100
AcDbEntity
8
0
100
AcDbCircle
10
14.750102941557435
20
11.288260678182134
30
0
40
1.2500000000000195
210
0
220
-0
230
1
100
AcDbArc
50
2.3432331462549785
51
90.043102648692695
0
LINE
5
132
100
AcDbEntity
8
0
100
AcDbLine
10
-12.749616503585536
20
60.067455486602775
30
0
11
14.748996170976216
21
60.040430725977757
31
0
0
ARC
5
133
100
AcDbEntity
8
0
100
AcDbCircle
10
14.750224630566784
20
61.290430122332424
30
0
40
1.2499999999999938
210
0
220
0
230
1
100
AcDbArc
50
-90.056308448937642
51
2.4765307441038638
0
LINE
5
134
100
AcDbEntity
8
0
100
AcDbLine
10
-12.749616503585548
20
25.067455486602768
30
0
11
14.748996170976216
21
25.040430725977764
31
0
0
ARC
5
135
100
AcDbEntity
8
0
100
AcDbCircle
10
-12.751571244746946
20
18.767572335989328
30
0
40
1.2499999999999969
210
0
220
0
230
1
100
AcDbArc
50
180.04310264868479
51
270.04310264869287
0
LINE
5
136
100
AcDbEntity
8
0
100
AcDbLine
10
-14.001570891040762
20
3.7666319821581773
30
0
11
-13.999690183378135
21
1.2666326895703759
31
0
0
LINE
5
137
100
AcDbEntity
8
0
100
AcDbLine
10
14.749162587726108
20
27.538260324475971
30
0
11
-12.750630890915623
21
27.517572689695516
31
0
0
LINE
5
138
100
AcDbEntity
8
0
100
AcDbLine
10
14.749162587726108
20
12.538260324475971
30
0
11
-12.750630890915623
21
12.517572689695513
31
0
0
ARC
5
139
100
AcDbEntity
8
0
100
AcDbCircle
10
-12.751571244746946
20
43.767572335989314
30
0
40
1.2499999999999969
210
0
220
0
230
1
100
AcDbArc
50
180.04310264868479
51
270.04310264869287
0
ARC
5
140
100
AcDbEntity
8
0
100
AcDbCircle
10
14.750102941557435
20
21.288260678182134
30
0
40
1.2500000000000195
210
0
220
-0
230
1
100
AcDbArc
50
2.3432331462549785
51
90.043102648692695
0
ARC
5
141
100
AcDbEntity
8
0
100
AcDbCircle
10
-12.75084496317611
20
8.8174560902481112
30
0
40
1.2499999999999973
210
0
220
-0
230
1
100
AcDbArc
50
89.943691551062642
51
179.94369155106722
0
ARC
5
142
100
AcDbEntity
8
0
100
AcDbCircle
10
14.750224630566784
20
26.290430122332435
30
0
40
1.2500000000000027
210
0
220
0
230
1
100
AcDbArc
50
-90.056308448937642
51
2.4765307441047471
0
LINE
5
143
100
AcDbEntity
8
0
100
AcDbLine
10
-12.749616503585548
20
30.067455486602768
30
0
11
14.748996170976216
21
30.04043072597776
31
0
0
ARC
5
144
100
AcDbEntity
8
0
100
AcDbCircle
10
14.750224630566784
20
36.290430122332431
30
0
40
1.2500000000000027
210
0
220
0
230
1
100
AcDbArc
50
-90.056308448937642
51
2.4765307441046001
0
LINE
5
145
100
AcDbEntity
8
0
100
AcDbLine
10
15.999057136764794
20
51.344442819573104
30
0
11
15.999057727545347
21
51.339367845565356
31
0
0
ARC
5
146
100
AcDbEntity
8
0
100
AcDbCircle
10
-12.75084496317611
20
33.817456090248108
30
0
40
1.2499999999999982
210
0
220
-0
230
1
100
AcDbArc
50
89.943691551062059
51
179.94369155106722
0
LINE
5
147
100
AcDbEntity
8
0
100
AcDbLine
10
14.749162587726108
20
22.538260324475971
30
0
11
-12.750630890915623
21
22.517572689695516
31
0
0
ARC
5
148
100
AcDbEntity
8
0
100
AcDbCircle
10
14.750224630566784
20
41.290430122332431
30
0
40
1.2500000000000027
210
0
220
0
230
1
100
AcDbArc
50
-90.056308448937642
51
2.4765307441046001
0
LINE
5
149
100
AcDbEntity
8
0
100
AcDbLine
10
-12.749616503585536
20
20.067455486602782
30
0
11
14.748996170976216
21
20.040430725977771
31
0
0
ARC
5
150
100
AcDbEntity
8
0
100
AcDbCircle
10
-12.75084496317611
20
3.8174560902481125
30
0
40
1.2500000000000004
210
0
220
-0
230
1
100
AcDbArc
50
89.943691551062059
51
179.94369155106722
0
LINE
5
151
100
AcDbEntity
8
0
100
AcDbLine
10
15.999057136764794
20
16.344442819573114
30
0
11
15.999057727545347
21
16.339367845565352
31
0
0
LINE
5
152
100
AcDbEntity
8
0
100
AcDbLine
10
-12.749616503585548
20
15.067455486602777
30
0
11
14.748996170976216
21
15.040430725977767
31
0
0
LINE
5
153
100
AcDbEntity
8
0
100
AcDbLine
10
14.749162587726126
20
47.538260324475942
30
0
11
-12.750630890915616
21
47.517572689695513
31
0
0
LINE
5
154
100
AcDbEntity
8
0
100
AcDbLine
10
-12.749616503585536
20
5.067455486602781
30
0
11
14.748996170976216
21
5.0404307259777692
31
0
0
ARC
5
155
100
AcDbEntity
8
0
100
AcDbCircle
10
-12.75084496317611
20
13.817456090248108
30
0
40
1.2500000000000004
210
0
220
-0
230
1
100
AcDbArc
50
89.943691551062642
51
179.94369155106722
0
ARC
5
156
100
AcDbEntity
8
0
100
AcDbCircle
10
14.750224630566784
20
21.290430122332435
30
0
40
1.2499999999999982
210
0
220
0
230
1
100
AcDbArc
50
-90.056308448937642
51
2.4765307441047471
0
LINE
5
157
100
AcDbEntity
8
0
100
AcDbLine
10
15.999057136764794
20
21.344442819573111
30
0
11
15.999057727545347
21
21.339367845565356
31
0
0
LINE
5
158
100
AcDbEntity
8
0
100
AcDbLine
10
15.999057136764785
20
11.344442819573112
30
0
11
15.999057727545347
21
11.339367845565357
31
0
0
ARC
5
159
100
AcDbEntity
8
0
100
AcDbCircle
10
14.750224630566784
20
16.290430122332435
30
0
40
1.2500000000000004
210
0
220
0
230
1
100
AcDbArc
50
-90.056308448937642
51
2.4765307441047471
0
ARC
5
160
100
AcDbEntity
8
0
100
AcDbCircle
10
-12.75084496317611
20
48.817456090248108
30
0
40
1.2500000000000027
210
0
220
-0
230
1
100
AcDbArc
50
89.943691551062059
51
179.94369155106722
0
ARC
5
161
100
AcDbEntity
8
0
100
AcDbCircle
10
14.750224630566784
20
51.290430122332431
30
0
40
1.2500000000000027
210
0
220
0
230
1
100
AcDbArc
50
-90.056308448937642
51
2.4765307441046001
0
ARC
5
162
100
AcDbEntity
8
0
100
AcDbCircle
10
14.750224630566784
20
6.290430122332439
30
0
40
1.2500000000000018
210
0
220
0
230
1
100
AcDbArc
50
-90.056308448937642
51
2.4765307441046001
0
ARC
5
163
100
AcDbEntity
8
0
100
AcDbCircle
10
-12.751571244746946
20
8.7675723359893318
30
0
40
1.2499999999999969
210
0
220
0
230
1
100
AcDbArc
50
180.04310264868479
51
270.04310264869287
0
LINE
5
164
100
AcDbEntity
8
0
100
AcDbLine
10
15.999057136764794
20
66.344442819573118
30
0
11
15.999057727545365
21
66.339367845565363
31
0
0
ARC
5
165
100
AcDbEntity
8
0
100
AcDbCircle
10
14.750102941557435
20
36.288260678182134
30
0
40
1.2500000000000373
210
0
220
-0
230
1
100
AcDbArc
50
2.3432331462548226
51
90.043102648691885
0
ARC
5
166
100
AcDbEntity
8
0
100
AcDbCircle
10
-12.751571244746946
20
53.767572335989314
30
0
40
1.2499999999999969
210
0
220
0
230
1
100
AcDbArc
50
180.04310264868479
51
270.04310264869258
0
LINE
5
167
100
AcDbEntity
8
0
100
AcDbLine
10
15.999057136764794
20
26.344442819573111
30
0
11
15.999057727545347
21
26.339367845565356
31
0
0
ARC
5
168
100
AcDbEntity
8
0
100
AcDbCircle
10
14.750102941557435
20
31.288260678182134
30
0
40
1.2500000000000373
210
0
220
-0
230
1
100
AcDbArc
50
2.3432331462548226
51
90.043102648692695
0
ARC
5
169
100
AcDbEntity
8
0
100
AcDbCircle
10
14.750102941557435
20
66.288260678182141
30
0
40
1.2500000000000369
210
0
220
-0
230
1
100
AcDbArc
50
2.3432331462548226
51
90.043102648692695
0
ARC
5
170
100
AcDbEntity
8
0
100
AcDbCircle
10
14.750224630566784
20
31.290430122332431
30
0
40
1.2500000000000027
210
0
220
0
230
1
100
AcDbArc
50
-90.056308448937642
51
2.4765307441047471
0
LINE
5
171
100
AcDbEntity
8
0
100
AcDbLine
10
15.999057136764794
20
41.344442819573104
30
0
11
15.999057727545347
21
41.339367845565356
31
0
0
ARC
5
172
100
AcDbEntity
8
0
100
AcDbCircle
10
14.750224630566784
20
46.290430122332431
30
0
40
1.2500000000000027
210
0
220
0
230
1
100
AcDbArc
50
-90.056308448937642
51
2.4765307441046001
0
LINE
5
173
100
AcDbEntity
8
0
100
AcDbLine
10
-12.749616503585536
20
50.067455486602775
30
0
11
14.748996170976216
21
50.040430725977757
31
0
0
LINE
5
174
100
AcDbEntity
8
0
100
AcDbLine
10
-12.749616503585548
20
65.067455486602768
30
0
11
14.748996170976216
21
65.040430725977757
31
0
0
ARC
5
175
100
AcDbEntity
8
0
100
AcDbCircle
10
14.750102941557435
20
56.288260678182134
30
0
40
1.2500000000000195
210
0
220
-0
230
1
100
AcDbArc
50
2.3432331462549785
51
90.043102648692695
0
LINE
5
176
100
AcDbEntity
8
0
100
AcDbLine
10
14.749162587726108
20
32.538260324475971
30
0
11
-12.750630890915616
21
32.517572689695506
31
0
0
ARC
5
177
100
AcDbEntity
8
0
100
AcDbCircle
10
14.750224630566784
20
71.290430122332424
30
0
40
1.2500000000000027
210
0
220
0
230
1
100
AcDbArc
50
-90.056308448937642
51
2.4765307441043056
0
ARC
5
178
100
AcDbEntity
8
0
100
AcDbCircle
10
14.750102941557435
20
61.288260678182134
30
0
40
1.2500000000000195
210
0
220
-0
230
1
100
AcDbArc
50
2.3432331462549785
51
90.043102648692695
0
LINE
5
179
100
AcDbEntity
8
0
100
AcDbLine
10
15.999057136764794
20
61.344442819573082
30
0
11
15.999057727545347
21
61.339367845565356
31
0
0
ARC
5
180
100
AcDbEntity
8
0
100
AcDbCircle
10
14.750102941557435
20
46.288260678182134
30
0
40
1.2500000000000195
210
0
220
-0
230
1
100
AcDbArc
50
2.3432331462549785
51
90.043102648691885
0
ARC
5
181
100
AcDbEntity
8
0
100
AcDbCircle
10
-12.75084496317611
20
38.817456090248101
30
0
40
1.2500000000000071
210
0
220
-0
230
1
100
AcDbArc
50
89.943691551062059
51
179.94369155106722
0
LINE
5
182
100
AcDbEntity
8
0
100
AcDbLine
10
-12.749616503585548
20
70.067455486602768
30
0
11
14.748996170976216
21
70.040430725977757
31
0
0
ARC
5
183
100
AcDbEntity
8
0
100
AcDbCircle
10
-12.751571244746946
20
63.767572335989314
30
0
40
1.2499999999999969
210
0
220
0
230
1
100
AcDbArc
50
180.04310264868479
51
270.04310264869258
0
LINE
5
184
100
AcDbEntity
8
0
100
AcDbLine
10
-12.749616503585536
20
35.067455486602775
30
0
11
14.748996170976216
21
35.040430725977757
31
0
0
LINE
5
185
100
AcDbEntity
8
0
100
AcDbLine
10
14.749162587726108
20
52.538260324475978
30
0
11
-12.750630890915623
21
52.517572689695498
31
0
0
ARC
5
186
100
AcDbEntity
8
0
100
AcDbCircle
10
14.750102941557435
20
71.288260678182127
30
0
40
1.2500000000000195
210
0
220
-0
230
1
100
AcDbArc
50
2.3432331462554452
51
90.043102648692695
0
ARC
5
187
100
AcDbEntity
8
0
100
AcDbCircle
10
-12.75084496317611
20
43.817456090248108
30
0
40
1.2500000000000027
210
0
220
-0
230
1
100
AcDbArc
50
89.943691551062059
51
179.94369155106722
0
LINE
5
188
100
AcDbEntity
8
0
100
AcDbLine
10
14.749162587726108
20
72.538260324475971
30
0
11
-12.750630890915616
21
72.517572689695484
31
0
0
ARC
5
189
100
AcDbEntity
8
0
100
AcDbCircle
10
-12.75084496317611
20
28.817456090248111
30
0
40
1.2499999999999893
210
0
220
-0
230
1
100
AcDbArc
50
89.943691551062642
51
179.94369155106722
0
ARC
5
190
100
AcDbEntity
8
0
100
AcDbCircle
10
-12.75084496317611
20
73.817456090248101
30
0
40
1.2500000000000027
210
0
220
-0
230
1
100
AcDbArc
50
89.943691551062059
51
179.94369155106722
0
ARC
5
191
100
AcDbEntity
8
0
100
AcDbCircle
10
-12.75084496317611
20
68.817456090248101
30
0
40
1.2499999999999938
210
0
220
-0
230
1
100
AcDbArc
50
89.943691551062642
51
179.94369155106722
0
ARC
5
192
100
AcDbEntity
8
0
100
AcDbCircle
10
-12.751571244746946
20
33.767572335989321
30
0
40
1.2499999999999969
210
0
220
0
230
1
100
AcDbArc
50
180.04310264868479
51
270.04310264869287
0
LINE
5
193
100
AcDbEntity
8
0
100
AcDbLine
10
15.999057136764794
20
71.344442819573089
30
0
11
15.999057727545347
21
71.339367845565363
31
0
0
LINE
5
194
100
AcDbEntity
8
0
100
AcDbLine
10
-12.749616503585536
20
75.067455486602782
30
0
11
14.748996170976216
21
75.040430725977743
31
0
0
ARC
5
195
100
AcDbEntity
8
0
100
AcDbCircle
10
14.750224630566784
20
76.290430122332424
30
0
40
1.2500000000000204
210
0
220
0
230
1
100
AcDbArc
50
-90.056308448937642
51
2.4765307441043056
0
ARC
5
196
100
AcDbEntity
8
0
100
AcDbCircle
10
-12.751571244746946
20
73.767572335989314
30
0
40
1.2499999999999969
210
0
220
0
230
1
100
AcDbArc
50
180.04310264868479
51
270.04310264869287
0
LINE
5
197
100
AcDbEntity
8
0
100
AcDbLine
10
15.999057136764794
20
46.344442819573104
30
0
11
15.999057727545347
21
46.339367845565356
31
0
0
ARC
5
198
100
AcDbEntity
8
0
100
AcDbCircle
10
-12.75084496317611
20
23.817456090248111
30
0
40
1.2499999999999893
210
0
220
-0
230
1
100
AcDbArc
50
89.943691551062642
51
179.94369155106722
0
LINE
5
199
100
AcDbEntity
8
0
100
AcDbLine
10
14.749162587726108
20
62.538260324475978
30
0
11
-12.750630890915623
21
62.517572689695498
31
0
0
ARC
5
200
100
AcDbEntity
8
0
100
AcDbCircle
10
-12.75084496317611
20
63.817456090248108
30
0
40
1.2499999999999938
210
0
220
-0
230
1
100
AcDbArc
50
89.943691551062642
51
179.94369155106722
0
LINE
5
201
100
AcDbEntity
8
0
100
AcDbLine
10
15.999057136764794
20
56.344442819573104
30
0
11
15.999057727545347
21
56.339367845565356
31
0
0
LINE
5
202
100
AcDbEntity
8
0
100
AcDbLine
10
-12.749616503585536
20
55.067455486602775
30
0
11
14.748996170976216
21
55.040430725977757
31
0
0
LINE
5
203
100
AcDbEntity
8
0
100
AcDbLine
10
14.749162587726108
20
57.538260324475978
30
0
11
-12.750630890915623
21
57.517572689695498
31
0
0
LINE
5
204
100
AcDbEntity
8
0
100
AcDbLine
10
14.749162587726108
20
67.538260324475985
30
0
11
-12.750630890915616
21
67.517572689695498
31
0
0
ARC
5
205
100
AcDbEntity
8
0
100
AcDbCircle
10
14.750224630566784
20
66.290430122332424
30
0
40
1.2500000000000027
210
0
220
0
230
1
100
AcDbArc
50
-90.056308448937642
51
2.4765307441054829
0
ARC
5
206
100
AcDbEntity
8
0
100
AcDbCircle
10
-12.751571244746946
20
68.767572335989314
30
0
40
1.2499999999999969
210
0
220
0
230
1
100
AcDbArc
50
180.04310264868479
51
270.04310264869287
0
LINE
5
207
100
AcDbEntity
8
0
100
AcDbLine
10
-12.749616503585536
20
40.067455486602775
30
0
11
14.748996170976216
21
40.040430725977757
31
0
0
ARC
5
208
100
AcDbEntity
8
0
100
AcDbCircle
10
-12.751571244746946
20
48.767572335989314
30
0
40
1.2499999999999969
210
0
220
0
230
1
100
AcDbArc
50
180.04310264868479
51
270.04310264869287
0
LINE
5
209
100
AcDbEntity
8
0
100
AcDbLine
10
-12.749616503585536
20
45.067455486602775
30
0
11
14.748996170976216
21
45.040430725977757
31
0
0
ARC
5
210
100
AcDbEntity
8
0
100
AcDbCircle
10
-12.75084496317611
20
93.817456090248101
30
0
40
1.2500000000000027
210
0
220
-0
230
1
100
AcDbArc
50
89.943691551062059
51
179.94369155106722
0
LINE
5
211
100
AcDbEntity
8
0
100
AcDbLine
10
14.749162587726126
20
82.538260324475942
30
0
11
-12.750630890915616
21
82.517572689695484
31
0
0
LINE
5
212
100
AcDbEntity
8
0
100
AcDbLine
10
14.749162587726126
20
77.538260324475942
30
0
11
-12.750630890915616
21
77.517572689695484
31
0
0
LINE
5
213
100
AcDbEntity
8
0
100
AcDbLine
10
15.999057136764794
20
76.344442819573089
30
0
11
15.999057727545365
21
76.339367845565363
31
0
0
ARC
5
214
100
AcDbEntity
8
0
100
AcDbCircle
10
-12.75084496317611
20
88.817456090248101
30
0
40
1.2500000000000027
210
0
220
-0
230
1
100
AcDbArc
50
89.943691551062059
51
179.94369155106722
0
ARC
5
215
100
AcDbEntity
8
0
100
AcDbCircle
10
-12.75084496317611
20
83.817456090248101
30
0
40
1.2500000000000027
210
0
220
-0
230
1
100
AcDbArc
50
89.943691551062059
51
179.94369155106722
0
LINE
5
216
100
AcDbEntity
8
0
100
AcDbLine
10
14.749162587726126
20
97.538260324475942
30
0
11
-12.750630890915616
21
97.517572689695498
31
0
0
ARC
5
217
100
AcDbEntity
8
0
100
AcDbCircle
10
14.750102941557435
20
86.288260678182112
30
0
40
1.2500000000000202
210
0
220
-0
230
1
100
AcDbArc
50
2.3432331462560674
51
90.043102648692695
0
LINE
5
218
100
AcDbEntity
8
0
100
AcDbLine
10
-12.749616503585548
20
80.067455486602753
30
0
11
14.748996170976216
21
80.040430725977743
31
0
0
ARC
5
219
100
AcDbEntity
8
0
100
AcDbCircle
10
14.750224630566784
20
86.290430122332396
30
0
40
1.2499999999999849
210
0
220
0
230
1
100
AcDbArc
50
-90.056308448937642
51
2.4765307441048945
0
ARC
5
220
100
AcDbEntity
8
0
100
AcDbCircle
10
14.750102941557435
20
91.288260678182127
30
0
40
1.2500000000000202
210
0
220
-0
230
1
100
AcDbArc
50
2.3432331462560674
51
90.043102648692695
0
ARC
5
221
100
AcDbEntity
8
0
100
AcDbCircle
10
14.750224630566784
20
91.290430122332396
30
0
40
1.2499999999999849
210
0
220
0
230
1
100
AcDbArc
50
-90.056308448937642
51
2.4765307441048945
0
LINE
5
222
100
AcDbEntity
8
0
100
AcDbLine
10
14.749162587726108
20
87.538260324475942
30
0
11
-12.750630890915616
21
87.517572689695498
31
0
0
ARC
5
223
100
AcDbEntity
8
0
100
AcDbCircle
10
-12.751571244746946
20
83.767572335989314
30
0
40
1.2499999999999969
210
0
220
0
230
1
100
AcDbArc
50
180.04310264868479
51
270.04310264869287
0
LINE
5
224
100
AcDbEntity
8
0
100
AcDbLine
10
-12.749616503585536
20
90.067455486602768
30
0
11
14.748996170976216
21
90.040430725977743
31
0
0
ARC
5
225
100
AcDbEntity
8
0
100
AcDbCircle
10
14.750102941557435
20
81.288260678182112
30
0
40
1.2500000000000202
210
0
220
-0
230
1
100
AcDbArc
50
2.3432331462560674
51
90.043102648691885
0
ARC
5
226
100
AcDbEntity
8
0
100
AcDbCircle
10
14.750224630566784
20
96.290430122332396
30
0
40
1.2499999999999849
210
0
220
0
230
1
100
AcDbArc
50
-90.056308448937642
51
2.4765307441048945
0
LINE
5
227
100
AcDbEntity
8
0
100
AcDbLine
10
-12.749616503585536
20
85.067455486602768
30
0
11
14.748996170976216
21
85.040430725977743
31
0
0
ARC
5
228
100
AcDbEntity
8
0
100
AcDbCircle
10
14.750102941557435
20
76.288260678182112
30
0
40
1.2500000000000382
210
0
220
-0
230
1
100
AcDbArc
50
2.3432331462562233
51
90.043102648691885
0
ARC
5
229
100
AcDbEntity
8
0
100
AcDbCircle
10
-12.751571244746946
20
93.7675723359893
30
0
40
1.2499999999999969
210
0
220
0
230
1
100
AcDbArc
50
180.04310264868479
51
270.04310264869258
0
LINE
5
230
100
AcDbEntity
8
0
100
AcDbLine
10
15.999057136764794
20
81.344442819573118
30
0
11
15.999057727545347
21
81.339367845565363
31
0
0
ARC
5
231
100
AcDbEntity
8
0
100
AcDbCircle
10
-12.751571244746946
20
88.7675723359893
30
0
40
1.2499999999999969
210
0
220
0
230
1
100
AcDbArc
50
180.04310264868479
51
270.04310264869287
0
ARC
5
232
100
AcDbEntity
8
0
100
AcDbCircle
10
-12.751571244746946
20
78.767572335989314
30
0
40
1.2499999999999969
210
0
220
0
230
1
100
AcDbArc
50
180.04310264868479
51
270.04310264869287
0
ARC
5
233
100
AcDbEntity
8
0
100
AcDbCircle
10
-12.75084496317611
20
78.817456090248101
30
0
40
1.249999999999976
210
0
220
-0
230
1
100
AcDbArc
50
89.943691551062642
51
179.94369155106722
0
ARC
5
234
100
AcDbEntity
8
0
100
AcDbCircle
10
14.750224630566784
20
81.29043012233241
30
0
40
1.2500000000000027
210
0
220
0
230
1
100
AcDbArc
50
-90.056308448937642
51
2.4765307441062197
0
ARC
5
235
100
AcDbEntity
8
0
100
AcDbCircle
10
-12.751571244746946
20
98.7675723359893
30
0
40
1.2499999999999969
210
0
220
0
230
1
100
AcDbArc
50
180.04310264868479
51
270.04310264869287
0
LINE
5
236
100
AcDbEntity
8
0
100
AcDbLine
10
15.999057136764776
20
86.344442819573075
30
0
11
15.999057727545347
21
86.339367845565363
31
0
0
LINE
5
237
100
AcDbEntity
8
0
100
AcDbLine
10
15.999057136764776
20
96.344442819573075
30
0
11
15.999057727545365
21
96.339367845565377
31
0
0
LINE
5
238
100
AcDbEntity
8
0
100
AcDbLine
10
-12.749616503585536
20
95.067455486602768
30
0
11
14.748996170976216
21
95.040430725977743
31
0
0
LINE
5
239
100
AcDbEntity
8
0
100
AcDbLine
10
14.749162587726108
20
92.538260324475971
30
0
11
-12.750630890915623
21
92.517572689695484
31
0
0
LINE
5
240
100
AcDbEntity
8
0
100
AcDbLine
10
15.999057136764776
20
91.344442819573075
30
0
11
15.999057727545347
21
91.339367845565377
31
0
0
ARC
5
241
100
AcDbEntity
8
0
100
AcDbCircle
10
14.750102941557435
20
96.288260678182127
30
0
40
1.250000000000038
210
0
220
-0
230
1
100
AcDbArc
50
2.3432331462562233
51
90.043102648691885
0
ENDSEC
0
SECTION
2
OBJECTS
0
DICTIONARY
5
C
100
AcDbDictionary
3
ACAD_GROUP
350
D
3
ACAD_MLINESTYLE
350
17
0
DICTIONARY
5
D
100
AcDbDictionary
0
DICTIONARY
5
1A
330
C
100
AcDbDictionary
0
DICTIONARY
5
17
100
AcDbDictionary
0
ENDSEC
0
EOF
